<svg xmlns="http://www.w3.org/2000/svg" width="32" height="32" viewBox="0 0 16 16">
  <circle cx="8" cy="8" r="7.5" fill="#1f7a3a" stroke="#1f7a3a" stroke-width="0.5"/>
  <path fill="#fff" d="M11 5.466V4H5v1.466l-2 2V11h10V7.466l-2-2zM6 5h4v.466l1.333 1.334H4.667L6 5.466V5zm-2 2.466h8V10H4V7.466z"/>
  <path fill="#fff" d="M9.302 1.256a1.5 1.5 0 0 0-2.604 0l-1.704 2.98a.5.5 0 0 0 .869.497l1.703-2.981a.5.5 0 0 1 .868 0l1.703 2.981a.5.5 0 1 0 .869-.497l-1.704-2.98z"/>
  <path fill="#fff" d="M2.256 11.293a1.5 1.5 0 0 0 1.302 2.256h3.408a.5.5 0 0 0 0-1H3.558a.5.5 0 0 1-.434-.752l1.704-2.981a.5.5 0 1 0-.868-.5l-1.704 2.98a1.5 1.5 0 0 0 0 1.297z"/>
  <path fill="#fff" d="M13.744 11.293a1.5 1.5 0 0 1-1.302 2.256H9.034a.5.5 0 0 1 0-1h3.408a.5.5 0 0 0 .434-.752l-1.704-2.981a.5.5 0 1 1 .868-.5l1.704 2.98a1.5 1.5 0 0 1 0 1.297z"/>
</svg>
